<?xml version="1.0" standalone="no"?><!DOCTYPE svg PUBLIC "-//W3C//DTD SVG 1.1//EN" "http://www.w3.org/Graphics/SVG/1.1/DTD/svg11.dtd"><svg t="1652371772869" class="icon" viewBox="0 0 1024 1024" version="1.1" xmlns="http://www.w3.org/2000/svg" p-id="3698" xmlns:xlink="http://www.w3.org/1999/xlink" width="44" height="44"><defs><style type="text/css">@font-face { font-family: feedback-iconfont; src: url("//at.alicdn.com/t/font_1031158_u69w8yhxdu.woff2?t=1630033759944") format("woff2"), url("//at.alicdn.com/t/font_1031158_u69w8yhxdu.woff?t=1630033759944") format("woff"), url("//at.alicdn.com/t/font_1031158_u69w8yhxdu.ttf?t=1630033759944") format("truetype"); }
</style></defs><path d="M971.915636 0H52.084364A52.224 52.224 0 0 0 0 52.084364v919.831272A52.224 52.224 0 0 0 52.084364 1024h919.831272A52.224 52.224 0 0 0 1024 971.915636V52.084364A52.224 52.224 0 0 0 971.915636 0zM225.605818 941.568h-125.672727a17.408 17.408 0 0 1-17.361455-17.361455V99.793455a17.408 17.408 0 0 1 17.361455-17.361455h125.672727z m715.915637-17.361455a17.408 17.408 0 0 1-17.361455 17.361455H312.413091V82.432h611.793454a17.408 17.408 0 0 1 17.361455 17.361455z" p-id="3699"></path><path d="M828.741818 208.290909H412.206545a43.380364 43.380364 0 0 0 0 86.760727h416.535273a43.380364 43.380364 0 1 0 0-86.760727zM828.741818 425.239273H412.206545a43.380364 43.380364 0 0 0 0 86.760727h416.535273a43.380364 43.380364 0 1 0 0-86.760727zM828.741818 642.327273H412.206545a43.380364 43.380364 0 0 0 0 86.760727h416.535273a43.380364 43.380364 0 0 0 0-86.760727z" p-id="3700"></path></svg>