<?xml version="1.0" standalone="no"?><!DOCTYPE svg PUBLIC "-//W3C//DTD SVG 1.1//EN" "http://www.w3.org/Graphics/SVG/1.1/DTD/svg11.dtd"><svg t="1652371410688" class="icon" viewBox="0 0 1024 1024" version="1.1" xmlns="http://www.w3.org/2000/svg" p-id="3114" xmlns:xlink="http://www.w3.org/1999/xlink" width="44" height="44"><defs><style type="text/css">@font-face { font-family: feedback-iconfont; src: url("//at.alicdn.com/t/font_1031158_u69w8yhxdu.woff2?t=1630033759944") format("woff2"), url("//at.alicdn.com/t/font_1031158_u69w8yhxdu.woff?t=1630033759944") format("woff"), url("//at.alicdn.com/t/font_1031158_u69w8yhxdu.ttf?t=1630033759944") format("truetype"); }
</style></defs><path d="M352 334.49h132c13.81 0 25-11.19 25-25s-11.19-25-25-25H352c-13.81 0-25 11.19-25 25s11.19 25 25 25zM352 440.99h132c13.81 0 25-11.19 25-25s-11.19-25-25-25H352c-13.81 0-25 11.19-25 25s11.19 25 25 25zM352 547.49h132c13.81 0 25-11.19 25-25s-11.19-25-25-25H352c-13.81 0-25 11.19-25 25s11.19 25 25 25z" fill="#333333" p-id="3115"></path><path d="M829 817.49h-25.09v-287c0-1.12 0.02-2.34 0.04-3.65 0.15-10.27 0.37-25.8-5.14-41.82-7.25-21.11-22.51-36.63-44.11-44.89l-0.51-0.19L614 393.23V262.49c0-57.9-47.1-105-105-105H327c-57.9 0-105 47.1-105 105v555h-27c-13.81 0-25 11.19-25 25s11.19 25 25 25h634c13.81 0 25-11.19 25-25s-11.19-25-25-25z m-91.71-330.47c14.64 5.8 16.98 16.82 16.66 39.11-0.02 1.56-0.04 3.02-0.04 4.36v287H614v-107h65.37c13.81 0 25-11.19 25-25s-11.19-25-25-25H614v-58h62.37c13.81 0 25-11.19 25-25s-11.19-25-25-25H614V445.94l123.29 41.08zM272 262.49c0-30.33 24.67-55 55-55h182c30.33 0 55 24.67 55 55v555h-56.75V694.56c0-30.33-22.09-55-49.25-55h-80c-27.15 0-49.25 24.67-49.25 55v122.93H272v-555z m185.25 555h-78.5V694.56c0-2.46 0.67-4.12 1.2-5h76.1c0.53 0.88 1.2 2.54 1.2 5v122.93z" fill="#333333" p-id="3116"></path></svg>