<?xml version="1.0" standalone="no"?><!DOCTYPE svg PUBLIC "-//W3C//DTD SVG 1.1//EN" "http://www.w3.org/Graphics/SVG/1.1/DTD/svg11.dtd"><svg t="1652371661141" class="icon" viewBox="0 0 1024 1024" version="1.1" xmlns="http://www.w3.org/2000/svg" p-id="3521" xmlns:xlink="http://www.w3.org/1999/xlink" width="44" height="44"><defs><style type="text/css">@font-face { font-family: feedback-iconfont; src: url("//at.alicdn.com/t/font_1031158_u69w8yhxdu.woff2?t=1630033759944") format("woff2"), url("//at.alicdn.com/t/font_1031158_u69w8yhxdu.woff?t=1630033759944") format("woff"), url("//at.alicdn.com/t/font_1031158_u69w8yhxdu.ttf?t=1630033759944") format("truetype"); }
</style></defs><path d="M771.974 844.966H623.99c-40.882 0-73.993-33.109-73.993-73.994V622.987c0-40.877 33.111-73.991 73.993-73.991h147.984c40.882 0 73.993 33.114 73.993 73.991v147.985c0 40.885-33.111 73.994-73.993 73.994z m0-221.979H623.99v147.985h147.984V622.987z m0-147.983H623.99c-40.882 0-73.993-33.111-73.993-73.994V253.025c0-40.879 33.111-73.994 73.993-73.994h147.984c40.882 0 73.993 33.115 73.993 73.994V401.01c0 40.883-33.111 73.994-73.993 73.994zM402.012 844.966H254.028c-40.882 0-73.993-33.109-73.993-73.994V622.987c0-40.877 33.111-73.991 73.993-73.991h147.984c40.879 0 73.993 33.114 73.993 73.991v147.985c0 40.885-33.114 73.994-73.993 73.994z m0-369.962H254.028c-40.882 0-73.993-33.111-73.993-73.994V253.025c0-40.879 33.111-73.994 73.993-73.994h147.984c40.879 0 73.993 33.115 73.993 73.994V401.01c0 40.883-33.114 73.994-73.993 73.994z m0-221.979H254.028V401.01h147.984V253.025z" fill="" p-id="3522"></path></svg>